<mxfile host="app.diagrams.net" modified="2023-12-03T17:29:01.597Z" agent="Mozilla/5.0 (Macintosh; Intel Mac OS X 10_15_7) AppleWebKit/537.36 (KHTML, like Gecko) Chrome/116.0.0.0 Safari/537.36" etag="4Jk9N4tXGglBPqq49iAL" version="22.1.5" type="google">
  <diagram name="Trang-1" id="ohpDwCjAWO9fB5fBcNNY">
    <mxGraphModel grid="1" page="1" gridSize="10" guides="1" tooltips="1" connect="1" arrows="1" fold="1" pageScale="1" pageWidth="827" pageHeight="1169" math="0" shadow="0">
      <root>
        <mxCell id="0" />
        <mxCell id="1" parent="0" />
        <mxCell id="ud9Xjk7E0xDvtACdMa6S-72" style="edgeStyle=orthogonalEdgeStyle;rounded=0;orthogonalLoop=1;jettySize=auto;html=1;entryX=0;entryY=0.5;entryDx=0;entryDy=0;" edge="1" parent="1" source="ud9Xjk7E0xDvtACdMa6S-1" target="ud9Xjk7E0xDvtACdMa6S-2">
          <mxGeometry relative="1" as="geometry" />
        </mxCell>
        <mxCell id="ud9Xjk7E0xDvtACdMa6S-73" style="edgeStyle=orthogonalEdgeStyle;rounded=0;orthogonalLoop=1;jettySize=auto;html=1;entryX=0;entryY=0.5;entryDx=0;entryDy=0;" edge="1" parent="1" source="ud9Xjk7E0xDvtACdMa6S-1" target="ud9Xjk7E0xDvtACdMa6S-3">
          <mxGeometry relative="1" as="geometry">
            <Array as="points">
              <mxPoint x="180" y="575" />
              <mxPoint x="180" y="330" />
            </Array>
          </mxGeometry>
        </mxCell>
        <mxCell id="ud9Xjk7E0xDvtACdMa6S-74" style="edgeStyle=orthogonalEdgeStyle;rounded=0;orthogonalLoop=1;jettySize=auto;html=1;entryX=0;entryY=0.5;entryDx=0;entryDy=0;" edge="1" parent="1" source="ud9Xjk7E0xDvtACdMa6S-1" target="ud9Xjk7E0xDvtACdMa6S-4">
          <mxGeometry relative="1" as="geometry">
            <Array as="points">
              <mxPoint x="180" y="575" />
              <mxPoint x="180" y="650" />
            </Array>
          </mxGeometry>
        </mxCell>
        <mxCell id="ud9Xjk7E0xDvtACdMa6S-75" style="edgeStyle=orthogonalEdgeStyle;rounded=0;orthogonalLoop=1;jettySize=auto;html=1;entryX=0;entryY=0.5;entryDx=0;entryDy=0;" edge="1" parent="1" source="ud9Xjk7E0xDvtACdMa6S-1" target="ud9Xjk7E0xDvtACdMa6S-5">
          <mxGeometry relative="1" as="geometry">
            <Array as="points">
              <mxPoint x="180" y="575" />
              <mxPoint x="180" y="860" />
            </Array>
          </mxGeometry>
        </mxCell>
        <mxCell id="ud9Xjk7E0xDvtACdMa6S-1" value="&lt;b&gt;Deep&amp;nbsp;&lt;br&gt;Learning&lt;br&gt;Architectures&lt;br&gt;on&lt;br&gt;Paraphrase&lt;br&gt;Indentification&lt;/b&gt;" style="text;html=1;strokeColor=none;fillColor=none;align=center;verticalAlign=middle;whiteSpace=wrap;rounded=0;" vertex="1" parent="1">
          <mxGeometry x="40" y="520" width="80" height="110" as="geometry" />
        </mxCell>
        <mxCell id="ud9Xjk7E0xDvtACdMa6S-42" style="edgeStyle=orthogonalEdgeStyle;rounded=0;orthogonalLoop=1;jettySize=auto;html=1;entryX=0;entryY=0.5;entryDx=0;entryDy=0;" edge="1" parent="1" source="ud9Xjk7E0xDvtACdMa6S-2" target="ud9Xjk7E0xDvtACdMa6S-6">
          <mxGeometry relative="1" as="geometry" />
        </mxCell>
        <mxCell id="ud9Xjk7E0xDvtACdMa6S-43" style="edgeStyle=orthogonalEdgeStyle;rounded=0;orthogonalLoop=1;jettySize=auto;html=1;entryX=0;entryY=0.5;entryDx=0;entryDy=0;" edge="1" parent="1" source="ud9Xjk7E0xDvtACdMa6S-2" target="ud9Xjk7E0xDvtACdMa6S-7">
          <mxGeometry relative="1" as="geometry" />
        </mxCell>
        <mxCell id="ud9Xjk7E0xDvtACdMa6S-2" value="&lt;b&gt;Early Architectures&lt;/b&gt;" style="text;html=1;strokeColor=none;fillColor=none;align=left;verticalAlign=middle;whiteSpace=wrap;rounded=0;" vertex="1" parent="1">
          <mxGeometry x="240" y="90" width="130" height="30" as="geometry" />
        </mxCell>
        <mxCell id="ud9Xjk7E0xDvtACdMa6S-44" style="edgeStyle=orthogonalEdgeStyle;rounded=0;orthogonalLoop=1;jettySize=auto;html=1;entryX=0;entryY=0.5;entryDx=0;entryDy=0;" edge="1" parent="1" source="ud9Xjk7E0xDvtACdMa6S-3" target="ud9Xjk7E0xDvtACdMa6S-15">
          <mxGeometry relative="1" as="geometry" />
        </mxCell>
        <mxCell id="ud9Xjk7E0xDvtACdMa6S-45" style="edgeStyle=orthogonalEdgeStyle;rounded=0;orthogonalLoop=1;jettySize=auto;html=1;entryX=0;entryY=0.5;entryDx=0;entryDy=0;" edge="1" parent="1" source="ud9Xjk7E0xDvtACdMa6S-3" target="ud9Xjk7E0xDvtACdMa6S-30">
          <mxGeometry relative="1" as="geometry" />
        </mxCell>
        <mxCell id="ud9Xjk7E0xDvtACdMa6S-3" value="&lt;div style=&quot;text-align: left;&quot;&gt;&lt;b style=&quot;background-color: initial;&quot;&gt;Traditional&lt;/b&gt;&lt;/div&gt;&lt;b&gt;&lt;div style=&quot;text-align: left;&quot;&gt;&lt;b style=&quot;background-color: initial;&quot;&gt;Deep Neural&lt;/b&gt;&lt;/div&gt;&lt;div style=&quot;text-align: left;&quot;&gt;&lt;b style=&quot;background-color: initial;&quot;&gt;Networks&lt;/b&gt;&lt;/div&gt;&lt;/b&gt;" style="text;html=1;strokeColor=none;fillColor=none;align=center;verticalAlign=middle;whiteSpace=wrap;rounded=0;" vertex="1" parent="1">
          <mxGeometry x="255" y="310" width="80" height="40" as="geometry" />
        </mxCell>
        <mxCell id="ud9Xjk7E0xDvtACdMa6S-67" style="edgeStyle=orthogonalEdgeStyle;rounded=0;orthogonalLoop=1;jettySize=auto;html=1;entryX=0;entryY=0.5;entryDx=0;entryDy=0;" edge="1" parent="1" source="ud9Xjk7E0xDvtACdMa6S-4" target="ud9Xjk7E0xDvtACdMa6S-46">
          <mxGeometry relative="1" as="geometry" />
        </mxCell>
        <mxCell id="ud9Xjk7E0xDvtACdMa6S-68" style="edgeStyle=orthogonalEdgeStyle;rounded=0;orthogonalLoop=1;jettySize=auto;html=1;entryX=0;entryY=0.5;entryDx=0;entryDy=0;" edge="1" parent="1" source="ud9Xjk7E0xDvtACdMa6S-4" target="ud9Xjk7E0xDvtACdMa6S-54">
          <mxGeometry relative="1" as="geometry" />
        </mxCell>
        <mxCell id="ud9Xjk7E0xDvtACdMa6S-4" value="&lt;div style=&quot;text-align: left;&quot;&gt;&lt;b style=&quot;background-color: initial;&quot;&gt;Mechanism&lt;/b&gt;&lt;/div&gt;&lt;b&gt;&lt;div style=&quot;text-align: left;&quot;&gt;&lt;b style=&quot;background-color: initial;&quot;&gt;Modules&lt;/b&gt;&lt;/div&gt;&lt;/b&gt;" style="text;html=1;strokeColor=none;fillColor=none;align=center;verticalAlign=middle;whiteSpace=wrap;rounded=0;" vertex="1" parent="1">
          <mxGeometry x="255" y="630" width="70" height="40" as="geometry" />
        </mxCell>
        <mxCell id="ud9Xjk7E0xDvtACdMa6S-69" style="edgeStyle=orthogonalEdgeStyle;rounded=0;orthogonalLoop=1;jettySize=auto;html=1;entryX=0;entryY=0.5;entryDx=0;entryDy=0;" edge="1" parent="1" source="ud9Xjk7E0xDvtACdMa6S-5" target="ud9Xjk7E0xDvtACdMa6S-64">
          <mxGeometry relative="1" as="geometry" />
        </mxCell>
        <mxCell id="ud9Xjk7E0xDvtACdMa6S-70" style="edgeStyle=orthogonalEdgeStyle;rounded=0;orthogonalLoop=1;jettySize=auto;html=1;entryX=0;entryY=0.5;entryDx=0;entryDy=0;" edge="1" parent="1" source="ud9Xjk7E0xDvtACdMa6S-5" target="ud9Xjk7E0xDvtACdMa6S-65">
          <mxGeometry relative="1" as="geometry" />
        </mxCell>
        <mxCell id="ud9Xjk7E0xDvtACdMa6S-71" style="edgeStyle=orthogonalEdgeStyle;rounded=0;orthogonalLoop=1;jettySize=auto;html=1;entryX=0;entryY=0.5;entryDx=0;entryDy=0;" edge="1" parent="1" source="ud9Xjk7E0xDvtACdMa6S-5" target="ud9Xjk7E0xDvtACdMa6S-66">
          <mxGeometry relative="1" as="geometry" />
        </mxCell>
        <mxCell id="ud9Xjk7E0xDvtACdMa6S-5" value="&lt;div style=&quot;text-align: left;&quot;&gt;&lt;b style=&quot;background-color: initial;&quot;&gt;Tranformer -base structures&lt;/b&gt;&lt;/div&gt;" style="text;html=1;strokeColor=none;fillColor=none;align=center;verticalAlign=middle;whiteSpace=wrap;rounded=0;" vertex="1" parent="1">
          <mxGeometry x="245" y="840" width="100" height="40" as="geometry" />
        </mxCell>
        <mxCell id="ud9Xjk7E0xDvtACdMa6S-21" style="edgeStyle=orthogonalEdgeStyle;rounded=0;orthogonalLoop=1;jettySize=auto;html=1;entryX=0;entryY=0.25;entryDx=0;entryDy=0;" edge="1" parent="1" source="ud9Xjk7E0xDvtACdMa6S-6" target="ud9Xjk7E0xDvtACdMa6S-9">
          <mxGeometry relative="1" as="geometry" />
        </mxCell>
        <mxCell id="ud9Xjk7E0xDvtACdMa6S-22" style="edgeStyle=orthogonalEdgeStyle;rounded=0;orthogonalLoop=1;jettySize=auto;html=1;entryX=0;entryY=0.5;entryDx=0;entryDy=0;" edge="1" parent="1" source="ud9Xjk7E0xDvtACdMa6S-6" target="ud9Xjk7E0xDvtACdMa6S-10">
          <mxGeometry relative="1" as="geometry" />
        </mxCell>
        <mxCell id="ud9Xjk7E0xDvtACdMa6S-6" value="&lt;b&gt;Simple Word - Embedding-Based&lt;/b&gt;" style="text;html=1;strokeColor=none;fillColor=none;align=left;verticalAlign=middle;whiteSpace=wrap;rounded=0;" vertex="1" parent="1">
          <mxGeometry x="420" y="50" width="120" height="30" as="geometry" />
        </mxCell>
        <mxCell id="ud9Xjk7E0xDvtACdMa6S-23" style="edgeStyle=orthogonalEdgeStyle;rounded=0;orthogonalLoop=1;jettySize=auto;html=1;entryX=0;entryY=0.5;entryDx=0;entryDy=0;" edge="1" parent="1" source="ud9Xjk7E0xDvtACdMa6S-7" target="ud9Xjk7E0xDvtACdMa6S-12">
          <mxGeometry relative="1" as="geometry" />
        </mxCell>
        <mxCell id="ud9Xjk7E0xDvtACdMa6S-24" style="edgeStyle=orthogonalEdgeStyle;rounded=0;orthogonalLoop=1;jettySize=auto;html=1;entryX=0;entryY=0.5;entryDx=0;entryDy=0;" edge="1" parent="1" source="ud9Xjk7E0xDvtACdMa6S-7" target="ud9Xjk7E0xDvtACdMa6S-13">
          <mxGeometry relative="1" as="geometry" />
        </mxCell>
        <mxCell id="ud9Xjk7E0xDvtACdMa6S-7" value="&lt;b&gt;Early Architectures&lt;/b&gt;" style="text;html=1;strokeColor=none;fillColor=none;align=left;verticalAlign=middle;whiteSpace=wrap;rounded=0;" vertex="1" parent="1">
          <mxGeometry x="420" y="130" width="120" height="30" as="geometry" />
        </mxCell>
        <mxCell id="ud9Xjk7E0xDvtACdMa6S-9" value="&lt;b&gt;Embedings with Word-Alignment [89, 90, 92, 94]&lt;/b&gt;" style="text;html=1;strokeColor=none;fillColor=none;align=left;verticalAlign=middle;whiteSpace=wrap;rounded=0;" vertex="1" parent="1">
          <mxGeometry x="600" y="10" width="200" height="30" as="geometry" />
        </mxCell>
        <mxCell id="ud9Xjk7E0xDvtACdMa6S-10" value="&lt;b&gt;Embedding with Pooling [95]&lt;/b&gt;" style="text;html=1;strokeColor=none;fillColor=none;align=left;verticalAlign=middle;whiteSpace=wrap;rounded=0;" vertex="1" parent="1">
          <mxGeometry x="600" y="70" width="170" height="30" as="geometry" />
        </mxCell>
        <mxCell id="ud9Xjk7E0xDvtACdMa6S-12" value="&lt;b&gt;Skip-thought Vectors [97, 98]&lt;/b&gt;" style="text;html=1;strokeColor=none;fillColor=none;align=left;verticalAlign=middle;whiteSpace=wrap;rounded=0;" vertex="1" parent="1">
          <mxGeometry x="600" y="110" width="170" height="30" as="geometry" />
        </mxCell>
        <mxCell id="ud9Xjk7E0xDvtACdMa6S-13" value="&lt;b&gt;Recursive Autoencoder [99, 100]&lt;/b&gt;" style="text;html=1;strokeColor=none;fillColor=none;align=left;verticalAlign=middle;whiteSpace=wrap;rounded=0;" vertex="1" parent="1">
          <mxGeometry x="600" y="150" width="190" height="30" as="geometry" />
        </mxCell>
        <mxCell id="ud9Xjk7E0xDvtACdMa6S-25" style="edgeStyle=orthogonalEdgeStyle;rounded=0;orthogonalLoop=1;jettySize=auto;html=1;entryX=0;entryY=0.5;entryDx=0;entryDy=0;" edge="1" parent="1" source="ud9Xjk7E0xDvtACdMa6S-15" target="ud9Xjk7E0xDvtACdMa6S-16">
          <mxGeometry relative="1" as="geometry" />
        </mxCell>
        <mxCell id="ud9Xjk7E0xDvtACdMa6S-26" style="edgeStyle=orthogonalEdgeStyle;rounded=0;orthogonalLoop=1;jettySize=auto;html=1;entryX=0;entryY=0.5;entryDx=0;entryDy=0;" edge="1" parent="1" source="ud9Xjk7E0xDvtACdMa6S-15" target="ud9Xjk7E0xDvtACdMa6S-17">
          <mxGeometry relative="1" as="geometry" />
        </mxCell>
        <mxCell id="ud9Xjk7E0xDvtACdMa6S-27" style="edgeStyle=orthogonalEdgeStyle;rounded=0;orthogonalLoop=1;jettySize=auto;html=1;entryX=0;entryY=0.5;entryDx=0;entryDy=0;" edge="1" parent="1" source="ud9Xjk7E0xDvtACdMa6S-15" target="ud9Xjk7E0xDvtACdMa6S-18">
          <mxGeometry relative="1" as="geometry" />
        </mxCell>
        <mxCell id="ud9Xjk7E0xDvtACdMa6S-28" style="edgeStyle=orthogonalEdgeStyle;rounded=0;orthogonalLoop=1;jettySize=auto;html=1;entryX=0;entryY=0.5;entryDx=0;entryDy=0;" edge="1" parent="1" source="ud9Xjk7E0xDvtACdMa6S-15" target="ud9Xjk7E0xDvtACdMa6S-19">
          <mxGeometry relative="1" as="geometry" />
        </mxCell>
        <mxCell id="ud9Xjk7E0xDvtACdMa6S-29" style="edgeStyle=orthogonalEdgeStyle;rounded=0;orthogonalLoop=1;jettySize=auto;html=1;entryX=0;entryY=0.5;entryDx=0;entryDy=0;" edge="1" parent="1" source="ud9Xjk7E0xDvtACdMa6S-15" target="ud9Xjk7E0xDvtACdMa6S-20">
          <mxGeometry relative="1" as="geometry" />
        </mxCell>
        <mxCell id="ud9Xjk7E0xDvtACdMa6S-15" value="&lt;b&gt;Simple Word - Embedding-Based&lt;/b&gt;" style="text;html=1;strokeColor=none;fillColor=none;align=left;verticalAlign=middle;whiteSpace=wrap;rounded=0;" vertex="1" parent="1">
          <mxGeometry x="420" y="220" width="110" height="30" as="geometry" />
        </mxCell>
        <mxCell id="ud9Xjk7E0xDvtACdMa6S-16" value="&lt;b&gt;Early stage of CNN on NLU [102, 105]&lt;/b&gt;" style="text;html=1;strokeColor=none;fillColor=none;align=left;verticalAlign=middle;whiteSpace=wrap;rounded=0;" vertex="1" parent="1">
          <mxGeometry x="600" y="190" width="170" height="30" as="geometry" />
        </mxCell>
        <mxCell id="ud9Xjk7E0xDvtACdMa6S-17" value="&lt;b&gt;Multiple-Granularity [99, 106, 107]&lt;/b&gt;" style="text;html=1;strokeColor=none;fillColor=none;align=left;verticalAlign=middle;whiteSpace=wrap;rounded=0;" vertex="1" parent="1">
          <mxGeometry x="600" y="230" width="200" height="30" as="geometry" />
        </mxCell>
        <mxCell id="ud9Xjk7E0xDvtACdMa6S-18" value="&lt;b&gt;Robustness [109]&lt;/b&gt;" style="text;html=1;strokeColor=none;fillColor=none;align=left;verticalAlign=middle;whiteSpace=wrap;rounded=0;" vertex="1" parent="1">
          <mxGeometry x="600" y="270" width="170" height="30" as="geometry" />
        </mxCell>
        <mxCell id="ud9Xjk7E0xDvtACdMa6S-19" value="&lt;b&gt;Long Dependency Mining [102, 103, 105]&lt;/b&gt;" style="text;html=1;strokeColor=none;fillColor=none;align=left;verticalAlign=middle;whiteSpace=wrap;rounded=0;" vertex="1" parent="1">
          <mxGeometry x="600" y="310" width="170" height="30" as="geometry" />
        </mxCell>
        <mxCell id="ud9Xjk7E0xDvtACdMa6S-20" value="&lt;b&gt;Feature Interactions [110, 111]&lt;/b&gt;" style="text;html=1;strokeColor=none;fillColor=none;align=left;verticalAlign=middle;whiteSpace=wrap;rounded=0;" vertex="1" parent="1">
          <mxGeometry x="600" y="350" width="180" height="30" as="geometry" />
        </mxCell>
        <mxCell id="ud9Xjk7E0xDvtACdMa6S-37" style="edgeStyle=orthogonalEdgeStyle;rounded=0;orthogonalLoop=1;jettySize=auto;html=1;" edge="1" parent="1" source="ud9Xjk7E0xDvtACdMa6S-30" target="ud9Xjk7E0xDvtACdMa6S-31">
          <mxGeometry relative="1" as="geometry" />
        </mxCell>
        <mxCell id="ud9Xjk7E0xDvtACdMa6S-38" style="edgeStyle=orthogonalEdgeStyle;rounded=0;orthogonalLoop=1;jettySize=auto;html=1;" edge="1" parent="1" source="ud9Xjk7E0xDvtACdMa6S-30" target="ud9Xjk7E0xDvtACdMa6S-32">
          <mxGeometry relative="1" as="geometry" />
        </mxCell>
        <mxCell id="ud9Xjk7E0xDvtACdMa6S-39" style="edgeStyle=orthogonalEdgeStyle;rounded=0;orthogonalLoop=1;jettySize=auto;html=1;entryX=0;entryY=0.5;entryDx=0;entryDy=0;" edge="1" parent="1" source="ud9Xjk7E0xDvtACdMa6S-30" target="ud9Xjk7E0xDvtACdMa6S-33">
          <mxGeometry relative="1" as="geometry" />
        </mxCell>
        <mxCell id="ud9Xjk7E0xDvtACdMa6S-40" style="edgeStyle=orthogonalEdgeStyle;rounded=0;orthogonalLoop=1;jettySize=auto;html=1;entryX=0;entryY=0.5;entryDx=0;entryDy=0;" edge="1" parent="1" source="ud9Xjk7E0xDvtACdMa6S-30" target="ud9Xjk7E0xDvtACdMa6S-36">
          <mxGeometry relative="1" as="geometry" />
        </mxCell>
        <mxCell id="ud9Xjk7E0xDvtACdMa6S-30" value="&lt;b&gt;Recurrent Neural&lt;br&gt;Networks []&lt;br&gt;&lt;/b&gt;" style="text;html=1;strokeColor=none;fillColor=none;align=left;verticalAlign=middle;whiteSpace=wrap;rounded=0;" vertex="1" parent="1">
          <mxGeometry x="420" y="420" width="110" height="30" as="geometry" />
        </mxCell>
        <mxCell id="ud9Xjk7E0xDvtACdMa6S-31" value="&lt;b&gt;Auto Enconder-Decoder Model with RNN Units [118 - 120]&lt;/b&gt;" style="text;html=1;strokeColor=none;fillColor=none;align=left;verticalAlign=middle;whiteSpace=wrap;rounded=0;" vertex="1" parent="1">
          <mxGeometry x="600" y="390" width="180" height="30" as="geometry" />
        </mxCell>
        <mxCell id="ud9Xjk7E0xDvtACdMa6S-32" value="&lt;b&gt;Multi-Layer LSTM [122, 124]&lt;/b&gt;" style="text;html=1;strokeColor=none;fillColor=none;align=left;verticalAlign=middle;whiteSpace=wrap;rounded=0;" vertex="1" parent="1">
          <mxGeometry x="599" y="435" width="170" height="30" as="geometry" />
        </mxCell>
        <mxCell id="ud9Xjk7E0xDvtACdMa6S-33" value="&lt;b&gt;Bidirectional LSTM [126, 127, 129]&lt;/b&gt;" style="text;html=1;strokeColor=none;fillColor=none;align=left;verticalAlign=middle;whiteSpace=wrap;rounded=0;" vertex="1" parent="1">
          <mxGeometry x="600" y="470" width="200" height="30" as="geometry" />
        </mxCell>
        <mxCell id="ud9Xjk7E0xDvtACdMa6S-36" value="&lt;b&gt;Tree-LSTM [129-131]&lt;/b&gt;" style="text;html=1;strokeColor=none;fillColor=none;align=left;verticalAlign=middle;whiteSpace=wrap;rounded=0;" vertex="1" parent="1">
          <mxGeometry x="600" y="510" width="170" height="30" as="geometry" />
        </mxCell>
        <mxCell id="ud9Xjk7E0xDvtACdMa6S-55" style="edgeStyle=orthogonalEdgeStyle;rounded=0;orthogonalLoop=1;jettySize=auto;html=1;entryX=0;entryY=0.5;entryDx=0;entryDy=0;" edge="1" parent="1" source="ud9Xjk7E0xDvtACdMa6S-46" target="ud9Xjk7E0xDvtACdMa6S-47">
          <mxGeometry relative="1" as="geometry" />
        </mxCell>
        <mxCell id="ud9Xjk7E0xDvtACdMa6S-56" style="edgeStyle=orthogonalEdgeStyle;rounded=0;orthogonalLoop=1;jettySize=auto;html=1;" edge="1" parent="1" source="ud9Xjk7E0xDvtACdMa6S-46" target="ud9Xjk7E0xDvtACdMa6S-48">
          <mxGeometry relative="1" as="geometry" />
        </mxCell>
        <mxCell id="ud9Xjk7E0xDvtACdMa6S-46" value="&lt;b&gt;Memory Neural&lt;br&gt;&amp;nbsp;Networks&lt;br&gt;&lt;/b&gt;" style="text;html=1;strokeColor=none;fillColor=none;align=left;verticalAlign=middle;whiteSpace=wrap;rounded=0;" vertex="1" parent="1">
          <mxGeometry x="414" y="570" width="106" height="30" as="geometry" />
        </mxCell>
        <mxCell id="ud9Xjk7E0xDvtACdMa6S-47" value="&lt;b&gt;Vanila Version [132]&lt;/b&gt;" style="text;html=1;strokeColor=none;fillColor=none;align=left;verticalAlign=middle;whiteSpace=wrap;rounded=0;" vertex="1" parent="1">
          <mxGeometry x="600" y="555" width="170" height="30" as="geometry" />
        </mxCell>
        <mxCell id="ud9Xjk7E0xDvtACdMa6S-48" value="&lt;b&gt;End-to-End Version [133]&lt;/b&gt;" style="text;html=1;strokeColor=none;fillColor=none;align=left;verticalAlign=middle;whiteSpace=wrap;rounded=0;" vertex="1" parent="1">
          <mxGeometry x="600" y="590" width="170" height="30" as="geometry" />
        </mxCell>
        <mxCell id="ud9Xjk7E0xDvtACdMa6S-50" value="&lt;b&gt;Bahdanau Attention [15, 136-138]&lt;/b&gt;" style="text;html=1;strokeColor=none;fillColor=none;align=left;verticalAlign=middle;whiteSpace=wrap;rounded=0;" vertex="1" parent="1">
          <mxGeometry x="600" y="630" width="200" height="30" as="geometry" />
        </mxCell>
        <mxCell id="ud9Xjk7E0xDvtACdMa6S-51" value="&lt;b&gt;Luong Attention [139, 140]&lt;/b&gt;" style="text;html=1;strokeColor=none;fillColor=none;align=left;verticalAlign=middle;whiteSpace=wrap;rounded=0;" vertex="1" parent="1">
          <mxGeometry x="600" y="670" width="170" height="30" as="geometry" />
        </mxCell>
        <mxCell id="ud9Xjk7E0xDvtACdMa6S-52" value="&lt;b&gt;Decomposeable Attention [141]&lt;/b&gt;" style="text;html=1;strokeColor=none;fillColor=none;align=left;verticalAlign=middle;whiteSpace=wrap;rounded=0;" vertex="1" parent="1">
          <mxGeometry x="600" y="710" width="190" height="30" as="geometry" />
        </mxCell>
        <mxCell id="ud9Xjk7E0xDvtACdMa6S-53" value="&lt;b&gt;Self-Attention [143 - 144]&lt;/b&gt;" style="text;html=1;strokeColor=none;fillColor=none;align=left;verticalAlign=middle;whiteSpace=wrap;rounded=0;" vertex="1" parent="1">
          <mxGeometry x="600" y="750" width="170" height="30" as="geometry" />
        </mxCell>
        <mxCell id="ud9Xjk7E0xDvtACdMa6S-60" style="edgeStyle=orthogonalEdgeStyle;rounded=0;orthogonalLoop=1;jettySize=auto;html=1;entryX=0;entryY=0.5;entryDx=0;entryDy=0;" edge="1" parent="1" source="ud9Xjk7E0xDvtACdMa6S-54" target="ud9Xjk7E0xDvtACdMa6S-50">
          <mxGeometry relative="1" as="geometry" />
        </mxCell>
        <mxCell id="ud9Xjk7E0xDvtACdMa6S-61" style="edgeStyle=orthogonalEdgeStyle;rounded=0;orthogonalLoop=1;jettySize=auto;html=1;" edge="1" parent="1" source="ud9Xjk7E0xDvtACdMa6S-54" target="ud9Xjk7E0xDvtACdMa6S-51">
          <mxGeometry relative="1" as="geometry" />
        </mxCell>
        <mxCell id="ud9Xjk7E0xDvtACdMa6S-62" style="edgeStyle=orthogonalEdgeStyle;rounded=0;orthogonalLoop=1;jettySize=auto;html=1;entryX=0;entryY=0.5;entryDx=0;entryDy=0;" edge="1" parent="1" source="ud9Xjk7E0xDvtACdMa6S-54" target="ud9Xjk7E0xDvtACdMa6S-52">
          <mxGeometry relative="1" as="geometry" />
        </mxCell>
        <mxCell id="ud9Xjk7E0xDvtACdMa6S-63" style="edgeStyle=orthogonalEdgeStyle;rounded=0;orthogonalLoop=1;jettySize=auto;html=1;entryX=0;entryY=0.5;entryDx=0;entryDy=0;" edge="1" parent="1" source="ud9Xjk7E0xDvtACdMa6S-54" target="ud9Xjk7E0xDvtACdMa6S-53">
          <mxGeometry relative="1" as="geometry" />
        </mxCell>
        <mxCell id="ud9Xjk7E0xDvtACdMa6S-54" value="&lt;b&gt;Attentive Neural&lt;br&gt;&amp;nbsp;Networks&lt;br&gt;&lt;/b&gt;" style="text;html=1;strokeColor=none;fillColor=none;align=left;verticalAlign=middle;whiteSpace=wrap;rounded=0;" vertex="1" parent="1">
          <mxGeometry x="414" y="690" width="106" height="30" as="geometry" />
        </mxCell>
        <mxCell id="ud9Xjk7E0xDvtACdMa6S-64" value="&lt;div style=&quot;&quot;&gt;&lt;b style=&quot;background-color: initial;&quot;&gt;GPT [146, 148]&lt;/b&gt;&lt;/div&gt;" style="text;html=1;strokeColor=none;fillColor=none;align=left;verticalAlign=middle;whiteSpace=wrap;rounded=0;" vertex="1" parent="1">
          <mxGeometry x="414" y="780" width="100" height="40" as="geometry" />
        </mxCell>
        <mxCell id="ud9Xjk7E0xDvtACdMa6S-65" value="&lt;div style=&quot;&quot;&gt;&lt;b style=&quot;background-color: initial;&quot;&gt;Bert [149 - 154]&lt;/b&gt;&lt;/div&gt;" style="text;html=1;strokeColor=none;fillColor=none;align=left;verticalAlign=middle;whiteSpace=wrap;rounded=0;" vertex="1" parent="1">
          <mxGeometry x="414" y="830" width="100" height="40" as="geometry" />
        </mxCell>
        <mxCell id="ud9Xjk7E0xDvtACdMa6S-66" value="&lt;div style=&quot;&quot;&gt;&lt;b style=&quot;background-color: initial;&quot;&gt;Other transformer- based structure [155 - 161]&lt;/b&gt;&lt;/div&gt;" style="text;html=1;strokeColor=none;fillColor=none;align=left;verticalAlign=middle;whiteSpace=wrap;rounded=0;" vertex="1" parent="1">
          <mxGeometry x="414" y="880" width="116" height="40" as="geometry" />
        </mxCell>
      </root>
    </mxGraphModel>
  </diagram>
</mxfile>
